<svg width="25" height="25" viewBox="0 0 25 25" fill="none" xmlns="http://www.w3.org/2000/svg"><g clip-path="url(#clip0_101_73)" fill="#B1B1B1"><path d="M4.81144 16.6678c.2514.1496.46725.3443.63949.5693H8.7061v-3.1565l-1.54351-.957c-.34377-.2131-.44966-.6646-.23655-1.0083.21316-.3437.66444-.4496 1.00835-.2366l1.50406.9325 1.31105-.8128C8.13457 8.41283 8.7351 3.33221 12.2158.464604 6.48233-1.45611.467906 2.8135.44076 8.94559.426601 12.1976 2.15793 15.0882 4.81144 16.6678ZM5.90894 18.7018h6.93296v1.66H5.90894v-1.66ZM10.1707 14.0806v3.1564h3.1192c.1657-.2185.3723-.4058.6128-.5474.6656-.3918 1.2767-.8697 1.8183-1.4166-1.5299-.3445-2.9038-1.1053-3.9963-2.1567-.0416.0271-.3419.2128-1.554.9643Z"/><path d="M17.5777.00232c-3.8403 0-6.9818 3.17338-6.9818 7.03059 0 3.62819 2.7852 6.63249 6.3563 6.95319 4.1328.3692 7.6073-2.9068 7.6073-6.95319 0-3.84974-3.132-7.03059-6.9818-7.03059Zm.7333 10.20488v.1531c0 .4044-.3279.7323-.7323.7323-.4045 0-.7324-.3279-.7324-.7323V10.29c-.3374-.0592-.6457-.1854-1.0351-.44022-.3385-.22142-.4334-.67528-.212-1.01377.2215-.33854.6754-.43336 1.0138-.21199.357.23357.4727.25178.9607.24841.4712-.00312.6589-.37296.6956-.59096.0329-.19573-.0041-.45596-.3671-.58422-.608-.21497-1.2315-.46163-1.6732-.80808-1.0058-.78889-.7022-2.59072.6174-3.07022v-.10604c0-.40446.3279-.73236.7323-.73236.4045 0 .7324.3279.7324.73236v.04062c.3608.10184.6514.28606.8511.48906.2836.28836.2797.75203-.0087 1.03565-.2882.28347-.7515.27971-1.0351-.00816-.0409-.03988-.2665-.228-.7549-.0809-.195.05874-.2474.26097-.2588.32156-.0239.12645.0101.21169.0282.22595.2763.21668.7907.41456 1.2575.57958 1.9302.68226 1.6951 3.24945-.0794 3.89093ZM7.08081 22.7052c0 1.2653 1.0294 2.2947 2.29471 2.2947 1.26528 0 2.29468-1.0294 2.29468-2.2947v-.8788H7.08081v.8788Z"/></g><defs><clipPath id="clip0_101_73"><path fill="#fff" d="M0 0h25v25H0z"/></clipPath></defs></svg>