<svg width="25" height="25" viewBox="0 0 25 25" fill="none" xmlns="http://www.w3.org/2000/svg"><g clip-path="url(#clip0_101_38)" fill="#B1B1B1"><path d="M3.92074 10.2272H1.1367c-.627657 0-1.1367.509-1.1367 1.1367v12.5C0 24.491.509043 25 1.1367 25h2.78404c.62766 0 1.13618-.509 1.13618-1.1361v-12.5c0-.6277-.50852-1.1367-1.13618-1.1367ZM10.5687 13.6356H7.78465c-.62819 0-1.1367.5091-1.1367 1.1367v9.0904c0 .6282.50851 1.1367 1.1367 1.1367h2.78405c.6277 0 1.1362-.509 1.1362-1.1367v-9.0904c0-.6276-.5085-1.1367-1.1362-1.1367ZM17.2154 13.6356h-2.7841c-.6276 0-1.1361.5091-1.1361 1.1367v9.0904c0 .6282.5085 1.1367 1.1361 1.1367h2.7841c.6282 0 1.1367-.509 1.1367-1.1367v-9.0904c0-.6276-.5085-1.1367-1.1367-1.1367ZM23.8633 10.2272h-2.784c-.6277 0-1.1362.509-1.1362 1.1367v12.5c0 .6276.5085 1.1361 1.1362 1.1361h2.784C24.491 25 25 24.4905 25 23.8639v-12.5c0-.6277-.509-1.1367-1.1367-1.1367ZM12.8313 6.8457v2.04575c.6191-.04096 1.2718-.33138 1.2718-1.01277 0-.70319-.7154-.90904-1.2718-1.03298ZM11.0522 4.39732c0 .51702.3846.81596 1.1596.97128V3.51807c-.7042.02074-1.1596.43457-1.1596.87925Z"/><path d="M12.5 0C9.05372 0 6.25 2.80426 6.25 6.25c0 3.44468 2.80372 6.2489 6.25 6.2489 3.4463 0 6.25-2.80422 6.25-6.2489C18.75 2.80426 15.9463 0 12.5 0Zm.3314 9.94628v.63992c0 .176-.1351.3516-.3117.3516-.1745 0-.308-.1756-.308-.3516v-.63992c-1.7463-.04256-2.61489-1.08617-2.61489-1.90266 0-.41224.24947-.65053.63989-.65053 1.1574 0 .2574 1.42606 1.975 1.49787V6.73138c-1.5319-.27819-2.45957-.95-2.45957-2.09681 0-1.40478 1.16807-2.12925 2.45957-2.16968v-.55106c0-.17606.1335-.3516.308-.3516.1766 0 .3117.17554.3117.3516v.55106c.8053.02128 2.459.5266 2.459 1.5399 0 .40266-.301.63989-.6526.63989-.6724 0-.6628-1.10479-1.8064-1.12606v1.96329c1.3638.2899 2.5718.69256 2.5718 2.28405 0 1.38404-1.033 2.08617-2.5718 2.18032Z"/></g><defs><clipPath id="clip0_101_38"><path fill="#fff" d="M0 0h25v25H0z"/></clipPath></defs></svg>