<svg width="25" height="25" viewBox="0 0 25 25" fill="none" xmlns="http://www.w3.org/2000/svg"><g clip-path="url(#clip0_101_81)"><path d="M24.3255 10.8738c-.0006-.0006-.0012-.0011-.0017-.0017L14.1257.674438C13.6911.239563 13.1131 0 12.4984 0s-1.1927.239372-1.6275.674248L.678172 10.8667c-.003433.0035-.006867.0071-.0103.0105-.892639.8978-.891113 2.3545.004387 3.25.409131.4093.949481.6464 1.527211.6712.02346.0022.04711.0034.07096.0034h.40645v7.5048C2.67688 23.7917 3.88519 25 5.37063 25h3.98979c.40436 0 .73238-.3279.73238-.7324v-5.8838c0-.6777.5513-1.2289 1.2289-1.2289h2.3533c.6777 0 1.2289.5512 1.2289 1.2289v5.8838c0 .4045.3279.7324.7325.7324h3.9898c1.4854 0 2.6937-1.2083 2.6937-2.6934v-7.5048h.3769c.6145 0 1.1925-.2394 1.6275-.6743.8965-.897.8969-2.3561.0012-3.2537Z" fill="#B1B1B1"/></g><defs><clipPath id="clip0_101_81"><path fill="#fff" d="M0 0h25v25H0z"/></clipPath></defs></svg>