<svg width="25" height="25" viewBox="0 0 25 25" fill="none" xmlns="http://www.w3.org/2000/svg"><g clip-path="url(#clip0_101_57)" fill="#B1B1B1"><path d="M14.4923 15.3372c4.195 0 7.6079-3.4401 7.6079-7.66857C22.1002 3.44019 18.6873 0 14.4923 0c-4.1949 0-7.60778 3.44014-7.60778 7.66858 0 4.22842 3.41288 7.66862 7.60778 7.66862Zm-2.4446-5.2756c.2213-.33829.675-.43325 1.0133-.21185.4929.32245.6789.35215 1.3293.34755.6349-.0042 1.0033-.47736 1.0769-.91528.0358-.21301.0495-.73316-.5952-.96105-.7561-.26732-1.5299-.57285-2.0683-.99511-.5383-.42226-.7849-1.15122-.6433-1.90228.1535-.81422.7214-1.46237 1.4823-1.69153.0069-.00205.0136-.0037.0205-.00575v-.27748c0-.40425.3277-.73198.732-.73198.4042 0 .732.32773.732.73198v.23136c.4971.11868.8443.34613.9853.45149.3238.24209.3901.70075.148 1.02458-.242.32384-.7007.3901-1.0245.14796-.15-.11214-.5646-.3532-1.1711-.17045-.3543.10677-.4462.45637-.4659.56094-.0387.2055.0047.39811.1082.47921.3731.2927 1.0449.55187 1.6527.76673 1.1209.3962 1.7442 1.43465 1.551 2.58406-.0948.564-.3786 1.0872-.799 1.4734-.2863.2632-.6196.4507-.9847.5579v.3323c0 .4043-.3278.732-.732.732-.4043 0-.732-.3277-.732-.732v-.2593c-.4733-.0574-.8706-.2054-1.4037-.5542-.3382-.2213-.4331-.6749-.2118-1.0132ZM2.77455 17.7968H1.10552c-.40425 0-.731985.3277-.731985.7319v5.7383c0 .4043.327735.732.731985.732H2.7746v-7.2022h-.00005ZM24.4121 17.7457c-1.372-1.372-3.6044-1.3721-4.9763 0l-2.1927 2.1927-.8987.8987c-.3633.3632-.8559.5673-1.3696.5673h-4.3701c-.3947 0-.73437-.3034-.75296-.6976-.01981-.4209.31556-.7684.73216-.7684h4.442c.8931 0 1.6678-.6359 1.8213-1.5157.0353-.202.0537-.4098.0537-.6217 0-.405-.3281-.7336-.733-.7336h-2.434c-.7954 0-1.5593-.3609-2.368-.743-.8483-.4006-1.72541-.815-2.75102-.8832-.89703-.0598-1.7961.0384-2.67239.2915-.93826.2709-1.61271 1.1045-1.6945 2.0669-.00312-.0003-.00629-.0003-.00946-.0005v7.1974L16.8495 25c.8671 0 1.6823-.3377 2.2955-.9509l5.2669-5.2668c.2864-.2862.2864-.7504.0002-1.0366Z"/></g><defs><clipPath id="clip0_101_57"><path fill="#fff" d="M0 0h25v25H0z"/></clipPath></defs></svg>