<svg width="25" height="25" viewBox="0 0 25 25" fill="none" xmlns="http://www.w3.org/2000/svg"><g clip-path="url(#clip0_101_49)" fill="#B1B1B1"><path d="M5.20825 22.9167c.00066.5523.22036 1.0819.61092 1.4724.39056.3906.92008.6103 1.47242.6109H17.7083c.5523-.0006 1.0818-.2203 1.4724-.6109.3905-.3905.6102-.9201.6109-1.4724v-.9115H5.20825v.9115ZM19.7916 2.08333c-.0007-.55233-.2204-1.08185-.6109-1.472413C18.7901.220358 18.2606.000655 17.7083 0H7.29159c-.55234.000655-1.08186.220358-1.47242.610917-.39056.390563-.61026.920083-.61092 1.472413V3.125H19.7916V2.08333ZM24.7098 6.70052l-3.125-3.25521-1.5028 1.44271L21.3894 6.25h-1.5977v2.08333h1.7101l-1.3891 1.33126 1.4414 1.50421 3.125-2.99484c.0988-.0947.178-.20794.233-.33326.0551-.12532.0849-.26025.0877-.39709.0029-.13684-.0213-.2729-.071-.4004a1.042352 1.042352 0 0 0-.219-.34269ZM16.6666 6.24996h3.125V4.16663H5.20825V16.6666h3.125V18.75h-3.125v2.0833H19.7916V8.33329h-3.125V6.24996Zm-1.0417 4.16664h-3.6458c-.1381 0-.2706.0549-.3683.1526-.0977.0977-.1525.2301-.1525.3683 0 .1381.0548.2706.1525.3682.0977.0977.2302.1526.3683.1526h1.0417c.6458-.0007 1.2688.2387 1.748.6715.4793.4329.7806 1.0284.8456 1.6709.0649.6426-.1113 1.2863-.4943 1.8063-.3831.5199-.9456.879-1.5785 1.0075v1.0938h-2.0833v-1.0417H9.37492v-2.0833h3.64588c.1381 0 .2706-.0549.3682-.1526.0977-.0976.1526-.2301.1526-.3682 0-.1382-.0549-.2706-.1526-.3683-.0976-.0977-.2301-.1526-.3682-.1526h-1.0417c-.6458.0007-1.2688-.2387-1.7481-.6715-.47927-.4329-.78061-1.0284-.84551-1.6709-.06491-.6426.11125-1.2863.49428-1.80626s.94563-.87905 1.57853-1.00756V7.29163h2.0833v1.04166h2.0833v2.08331Z"/><path d="m3.49828 16.6667 1.38906-1.3312-1.44141-1.5042-3.124999 2.9948c-.098816.0947-.178002.2079-.23303.3333a1.041308 1.041308 0 0 0-.087675.397 1.041452 1.041452 0 0 0 .071043.4004c.049756.1275.124151.244.218933.3427L3.4152 21.5547l1.50287-1.4427-1.30743-1.362H5.2083v-2.0833H3.49828Z"/></g><defs><clipPath id="clip0_101_49"><path fill="#fff" d="M0 0h25v25H0z"/></clipPath></defs></svg>