<svg width="22" height="20" viewBox="0 0 22 20" fill="none" xmlns="http://www.w3.org/2000/svg"><path d="M19.1878 19.125H1.86282c-1.01321 0-1.83743-.8286-1.83743-1.8472 0-.5406.234173-1.0524.642534-1.4039.02634-.0232.054602-.0443.084018-.0634C2.29329 14.4583 3.17538 12.513 3.17538 10.4588V7.51382C3.17538 3.43952 6.47341.125 10.5253.125c.168 0 .3497.003092.5178.031698.4293.071706.7192.480295.6477.910922-.0714.43062-.4851.72208-.9061.65018-.0841-.01372-.1763-.00947-.2594-.00947-3.18345 0-5.77492 2.60404-5.77492 5.80549v2.94498c0 2.5503-1.11204 4.9634-3.0481 6.6194-.01576.0127-.02941.0243-.04633.0359-.02826.036-.05556.0909-.05556.1637 0 .1435.11977.2639.26243.2639H19.1878c.1428 0 .2626-.1204.2626-.2639 0-.074-.0273-.1277-.0567-.1637-.0158-.0116-.0294-.0232-.0452-.0359-1.9372-1.6572-3.0481-4.0691-3.0481-6.6194V9.30841c0-.437.3528-.79167.7875-.79167s.7875.35467.7875.79167v1.15039c0 2.0553.8831 4.0016 2.4265 5.355.0283.0189.0556.039.0808.0612.4085.3504.6427.8622.6427 1.4028 0 1.0186-.8242 1.8472-1.8376 1.8472Z" fill="#FE5C73"/></svg>