<svg width="20" height="20" viewBox="0 0 20 20" fill="none" xmlns="http://www.w3.org/2000/svg"><path d="m19.197 18.0803-4.5677-4.5678c1.1322-1.3804 1.8147-3.1485 1.8147-5.07567 0-4.42041-3.5868-8.007142-8.00717-8.007142C4.01254.429688.429688 4.01642.429688 8.43683c0 4.42037 3.582852 8.00717 8.007142 8.00717 1.92717 0 3.69147-.6786 5.07187-1.8108l4.5677 4.5638c.3102.3102.8104.3102 1.1206 0 .3102-.3063.3102-.8104 0-1.1167Zm-10.76017-3.23c-3.5402 0-6.41735-2.8771-6.41735-6.41347 0-3.53633 2.87715-6.41735 6.41735-6.41735 3.53637 0 6.41737 2.88102 6.41737 6.41735 0 3.53637-2.881 6.41347-6.41737 6.41347Z" fill="#718EBF"/></svg>