<svg width="11" height="12" viewBox="0 0 11 12" fill="none" xmlns="http://www.w3.org/2000/svg"><path d="M11.0885 5.74609c0-3.03758-2.46245-5.499996-5.5-5.499996S.088501 2.70851.088501 5.74609 2.5509 11.2461 5.5885 11.2461c3.03755 0 5.5-2.46243 5.5-5.50001ZM6.32988 8.68436v.62502h-.7679v.00006-.00006h-.7679v-.62041c-.46427-.15722-.84412-.43382-1.21507-.70509l.90663-1.23966c.49837.3645.75342.53968 1.10286.53968.19761 0 .35759-.09404.41759-.24542.07259-.18327-.03-.35211-.27461-.45168 0 0-1.09763-.36609-1.60511-.8835-.42577-.43402-.56123-1.04579-.42567-1.62771.13648-.58591.5321-1.04404 1.09338-1.27283V2.1827h1.5358v.59436c.39004.10833.72019.26841.91001.37146l-.73273 1.34973c-.48582-.2637-.93274-.34285-1.10669-.28336-.16879.05764-.19443.16771-.20411.20918-.01367.05872-.02099.14882.0729.25346.09036.1007 1.04127.48685 1.04127.48685 1.02602.41769 1.50887 1.4666 1.12328 2.43984-.20032.50585-.60351.88893-1.10393 1.08014Z" fill="#B1B1B1"/></svg>