<svg width="25" height="25" viewBox="0 0 25 25" fill="none" xmlns="http://www.w3.org/2000/svg"><path d="M22.6985 9.41406h-.5307c-.1724-.53955-.39-1.06367-.6506-1.56723l.3759-.37588c.9114-.9104.887-2.36939.0003-3.25513l-1.1089-1.10889c-.8852-.88637-2.3445-.91206-3.2552-.00034l-.3761.37617c-.5036-.26054-1.0278-.47812-1.5673-.65053v-.53081C15.5859 1.03242 14.5535 0 13.2845 0h-1.569c-1.269 0-2.30144 1.03242-2.30144 2.30142v.53081c-.5395.17236-1.06367.38994-1.56723.65053L7.471 3.10693c-.90884-.90991-2.36807-.88857-3.25508-.00029L3.10688 4.21558c-.88632.88535-.91196 2.34443-.00029 3.25512l.37617.37617c-.26059.50357-.47812 1.02764-.65053 1.56724h-.53077C1.03247 9.41406 0 10.4465 0 11.7155v1.569c0 1.269 1.03247 2.3014 2.30146 2.3014h.53077c.17241.5396.38994 1.0637.65053 1.5673l-.37588.3759c-.91137.9104-.88696 2.3693-.00029 3.2551l1.10894 1.1089c.8852.8863 2.34448.912 3.25512.0003l.37618-.3762c.50356.2606 1.02773.4782 1.56723.6506v.5308c0 1.269 1.03244 2.3014 2.30144 2.3014h1.569c1.269 0 2.3015-1.0324 2.3015-2.3014v-.5308c.5395-.1724 1.0637-.39 1.5672-.6506l.3759.3759c.9088.9099 2.368.8885 3.255.0003l1.1091-1.109c.8863-.8854.9119-2.3445.0003-3.2552l-.3762-.3761c.2606-.5036.4781-1.0277.6505-1.5673h.5308c1.269 0 2.3014-1.0324 2.3014-2.3014v-1.569c0-1.2689-1.0325-2.30134-2.3015-2.30134ZM12.5 17.9395c-2.99937 0-5.43945-2.4402-5.43945-5.4395 0-2.99932 2.44008-5.43945 5.43945-5.43945 2.9994 0 5.4395 2.44013 5.4395 5.43945 0 2.9993-2.4401 5.4395-5.4395 5.4395Z" fill="#B1B1B1"/></svg>