<svg width="19" height="14" viewBox="0 0 19 14" fill="none" xmlns="http://www.w3.org/2000/svg"><path d="M16.1509 13.2187h-1.8585c-.2152 0-.4215-.0866-.5737-.2407-.1522-.1542-.2376-.3633-.2376-.5813 0-.218.0854-.4271.2376-.5812.1522-.1542.3585-.2408.5737-.2408h1.8585c.256-.0006.5012-.1039.6821-.2874.1809-.1834.2826-.432.2829-.6913V2.8421c-.0002-.2594-.1018-.50816-.2827-.69174-.1809-.18357-.4262-.28699-.6823-.28757H3.32732c-.25612.00029-.50167.10351-.68278.28699-.1811.18349-.28297.43227-.28326.69177v2.62608c0 .21802-.08548.4271-.23764.58126-.15216.15416-.35852.24076-.57371.24076-.21518 0-.42155-.0866-.573706-.24076-.152157-.15416-.237638-.36324-.237638-.58126V2.8421c.000573-.69549.273484-1.36232.758824-1.854155C1.98275.496113 2.64087.219476 3.32732.21875H16.1509c.6863.001016 1.3441.277782 1.8292.769582.4852.491798.7579 1.158468.7585 1.853768v7.7539c-.0007.6951-.2736 1.3617-.7586 1.8534-.4851.4916-1.1429.7683-1.8291.7693Z" fill="#FFBB38"/></svg>