<svg width="11" height="12" viewBox="0 0 11 12" fill="none" xmlns="http://www.w3.org/2000/svg"><path d="M9.77269 4.50759c-1.19615-1.19158-2.63447-1.44779-4.28484-1.154L2.13808.016968l-.79994.79688c.26339.986012.00732 2.068512-.764177 2.837062l-.519947.51796 2.305304 2.2963c-.23244 1.29576-.21063 2.39475.59722 3.58673.93222 1.3761 2.56378 2.1583 4.2731 1.9239.28259-.0387.51862-.234.60944-.5033.09083-.2693.02078-.5667-.18086-.7677L6.6449 9.69713V7.62137h2.08593L9.7385 8.62524c.20208.20131.5014.2706.772.17939.2706-.09121.466-.32741.504-.60956.18-1.3351-.2585-2.70842-1.24181-3.68748Z" fill="#B1B1B1"/></svg>