<svg width="16" height="18" viewBox="0 0 16 18" fill="none" xmlns="http://www.w3.org/2000/svg"><path d="M11.994 2.29163h3.2143V.166626H.208313V12.9166H3.4226v2.125H.208313v2.125H15.2083V4.41663H11.994v-2.125Zm-1.0714 4.25h-3.75c-.14208 0-.27834.05597-.37881.1556-.10047.09962-.15691.23475-.15691.37565 0 .14089.05644.27602.15691.37565s.23673.1556.37881.1556h1.07143c.66426-.00067 1.30507.24346 1.79807.68498.4929.44151.8029 1.04892.8696 1.70431.0668.65538-.1144 1.31198-.5084 1.84238-.3939.5303-.97258.8966-1.62356 1.0277v1.1156H6.63688v-1.0625H4.49403v-2.125h3.75c.14208 0 .27834-.0559.3788-.1556.10047-.0996.15691-.2347.15691-.3756s-.05644-.27605-.15691-.37567c-.10046-.09963-.23672-.1556-.3788-.1556H7.1726c-.66426.00066-1.30507-.24347-1.79804-.68498-.49296-.44152-.80291-1.04893-.86966-1.70432-.06676-.65539.11443-1.312.5084-1.84236.39397-.53036.97261-.89664 1.62358-1.02772V3.35413h2.14286v1.0625h2.14286v2.125Z" fill="#B1B1B1"/></svg>