<svg width="19" height="14" viewBox="0 0 19 14" fill="none" xmlns="http://www.w3.org/2000/svg"><path d="M15.4739 13.637H2.65108c-.68631-.0008-1.34431-.2773-1.829611-.7691C.33617 12.3762.063216 11.7095.0625 11.0141V3.25987C.063216 2.56446.33617 1.89773.821469 1.406 1.30677.914263 1.96477.637688 2.65108.636963H15.4739c.6863.000725 1.3443.2773 1.8296.769037.4853.49173.7583 1.15846.759 1.85387v7.75423c-.0007.6954-.2737 1.3621-.759 1.8538-.4853.4918-1.1433.7683-1.8296.7691ZM2.65108 2.28108c-.25611.00029-.50164.1035-.68274.287-.18109.1835-.28296.43229-.28324.69179v7.75423c.00028.2595.10215.5083.28324.6917.1811.1835.42663.2868.68274.2871H15.4739c.2561-.0003.5017-.1036.6828-.2871.1811-.1834.2829-.4322.2832-.6917V3.25987c-.0003-.2595-.1021-.50829-.2832-.69179s-.4267-.28671-.6828-.287H2.65108Z" fill="#FFBB38"/></svg>