<svg width="25" height="25" viewBox="0 0 25 25" fill="none" xmlns="http://www.w3.org/2000/svg"><path d="M13.2845 25h-1.569c-1.269 0-2.30149-1.0324-2.30149-2.3014v-.5308c-.5395-.1724-1.06367-.39-1.56723-.6506l-.37617.3762c-.91109.9122-2.37051.8855-3.25513-.0003l-1.10894-1.1089c-.88618-.8852-.91167-2.3442.0003-3.2551l.37587-.3759c-.26059-.5036-.47812-1.0277-.65053-1.5673h-.53076C1.03247 15.5859 0 14.5535 0 13.2845v-1.569c0-1.269 1.03247-2.30144 2.30146-2.30144h.53077c.17241-.53955.38994-1.06367.65053-1.56723l-.37617-.37613c-.91142-.91045-.88628-2.36953.00029-3.25512l1.10904-1.10899c.88667-.88789 2.34575-.91006 3.25508.00029l.37583.37583c.50356-.26054 1.02773-.47812 1.56723-.65053v-.53076C9.41406 1.03242 10.4465 0 11.7155 0h1.569c1.269 0 2.3014 1.03242 2.3014 2.30142v.53081c.5395.17236 1.0637.38994 1.5673.65053l.3761-.37617c.9111-.91221 2.3706-.88545 3.2552.00034l1.1089 1.10889c.8862.88521.9117 2.34414-.0003 3.25513l-.3759.37588c.2606.50356.4782 1.02763.6506 1.56723h.5307c1.269 0 2.3015 1.03244 2.3015 2.30144v1.569c0 1.269-1.0325 2.3014-2.3015 2.3014h-.5307c-.1724.5396-.39 1.0637-.6506 1.5673l.3762.3761c.9114.9105.8863 2.3696-.0003 3.2552l-1.109 1.109c-.8867.8878-2.3458.91-3.2551-.0003l-.3758-.3759c-.5036.2606-1.0278.4782-1.5673.6506v.5308c0 1.2689-1.0324 2.3013-2.3014 2.3013Zm-5.19285-5.021c.69956.4137 1.45249.7263 2.23785.929.3234.0834.5494.3751.5494.7091v1.0815c0 .4613.3753.8366.8366.8366h1.569c.4613 0 .8366-.3753.8366-.8366v-1.0815c0-.334.226-.6257.5495-.7091.7853-.2027 1.5382-.5153 2.2378-.929.2878-.1702.6543-.1239.8908.1126l.766.766c.3303.3307.8606.323 1.1828.0004l1.1097-1.1097c.3214-.321.3321-.8515.0003-1.1829l-.7664-.7663c-.2364-.2365-.2827-.603-.1125-.8908.4137-.6995.7262-1.4524.9289-2.2378.0835-.3234.3752-.5494.7092-.5494h1.0814c.4613 0 .8366-.3753.8366-.8365v-1.5691c0-.4613-.3753-.8365-.8366-.8365h-1.0814c-.334 0-.6257-.226-.7092-.5494-.2027-.78541-.5152-1.53834-.9289-2.23785-.1702-.2878-.1239-.6543.1125-.89072l.7661-.76607c.3312-.33076.3225-.86103.0003-1.18286l-1.1096-1.10962c-.3216-.32207-.8521-.33149-1.1829-.00029l-.7663.76635c-.2364.23648-.603.28277-.8908.11255-.6995-.41372-1.4524-.72627-2.2378-.92895-.3234-.08345-.5494-.37515-.5494-.70918V2.30142c0-.46128-.3754-.83658-.8366-.83658h-1.569c-.4613 0-.8366.3753-.8366.83658v1.08144c0 .33403-.226.62573-.5495.70918-.78531.20269-1.53824.51524-2.2378.92896-.28789.17016-.65435.12387-.89077-.11255l-.76602-.76607c-.33027-.33066-.86069-.323-1.18281-.00034L4.14238 5.25171c-.32138.321-.33213.85141-.00029 1.18286l.76636.76636c.23642.23642.28271.60293.11255.89072-.41372.69951-.72622 1.45244-.92891 2.23785-.0835.3234-.3752.5494-.70918.5494H2.30146c-.46127 0-.83662.3753-.83662.8366v1.569c0 .4613.37535.8366.83662.8366h1.0814c.33403 0 .62568.226.70918.5494.20269.7854.51524 1.5383.92891 2.2378.17016.2878.12387.6543-.11255.8907l-.76607.7661c-.33115.3308-.32251.861-.00029 1.1828l1.10962 1.1097c.32163.322.8521.3315 1.18286.0003l.76631-.7664c.17422-.1742.53667-.322.89082-.1125Z" fill="#718EBF"/></svg>