<svg width="25" height="25" viewBox="0 0 25 25" fill="none" xmlns="http://www.w3.org/2000/svg"><path d="m24.3279 10.8738-.0017-.0017L14.1271.674438C13.6924.239563 13.1144 0 12.4996 0s-1.1928.239372-1.6277.674248L.67818 10.8667c-.003433.0035-.006867.0071-.010301.0105-.89273.8978-.891204 2.3545.004388 3.25.409163.4093.949573.6464 1.527373.6712.02346.0022.04711.0034.07096.0034h.40649v7.5048C2.67709 23.7917 3.88552 25 5.37112 25h3.9902c.4044 0 .73248-.3279.73248-.7324v-5.8838c0-.6777.5513-1.2289 1.229-1.2289h2.3536c.6777 0 1.229.5512 1.229 1.2289v5.8838c0 .4045.3279.7324.7325.7324h3.9902c1.4856 0 2.694-1.2083 2.694-2.6934v-7.5048h.3769c.6147 0 1.1926-.2394 1.6278-.6743.8965-.897.8969-2.3561.0011-3.2537Z" fill="#2D60FF"/></svg>