<svg width="21" height="10" viewBox="0 0 21 10" fill="none" xmlns="http://www.w3.org/2000/svg"><path d="M20.0278 2.84851c-1.3459-1.43277-3.5358-1.43282-4.8815 0l-2.151 2.28982-.8816.93855c-.3563.3793-.8396.59242-1.3435.59242H6.48326c-.38717 0-.72035-.31678-.73859-.72849-.01943-.43959.30958-.80248.71824-.80248h4.35739c.8761 0 1.636-.66402 1.7866-1.58279.0346-.21098.0527-.42792.0527-.6493 0-.42292-.3219-.76609-.7191-.76609H9.55291c-.78028 0-1.52958-.3768-2.32293-.77583C6.39786.945882 5.53744.513174 4.53136.44193c-.87994-.062427-1.7619.040157-2.6215.304389C.989469 1.02925.327859 1.89977.247629 2.90482c-.003064-.00026-.006175-.00031-.009287-.00051v7.51629l12.370858.0036c.8506 0 1.6503-.3527 2.2518-.99298l5.1666-5.5002c.281-.29884.281-.78358.0002-1.08251Z" fill="#B1B1B1"/></svg>