<svg width="26" height="26" viewBox="0 0 26 26" fill="none" xmlns="http://www.w3.org/2000/svg"><path d="M13.1972 10.5341c.504 0 .9156.4105.9156.9146 0 .4599.3739.8327.8338.8327.4589 0 .8327-.3728.8327-.8327 0-1.1299-.7361-2.08337-1.7494-2.432v-.47253c0-.45888-.3728-.83375-.8327-.83375-.461 0-.8338.37487-.8338.83375v.47253c-1.0133.34863-1.7473 1.3021-1.7473 2.432 0 1.4249 1.1572 2.5821 2.5811 2.5821.504 0 .9156.4116.9156.9156 0 .5051-.4116.9157-.9156.9157-.5041 0-.9146-.4106-.9146-.9157 0-.4599-.3739-.8337-.8338-.8337-.461 0-.8327.3738-.8327.8337 0 1.1299.734 2.0823 1.7473 2.4309v.4726c0 .4609.3728.8348.8338.8348.4599 0 .8327-.3739.8327-.8348v-.4726c1.0133-.3486 1.7494-1.301 1.7494-2.4309 0-1.4239-1.1582-2.5821-2.5821-2.5821-.5041 0-.9146-.4106-.9146-.9156 0-.5041.4105-.9146.9146-.9146Zm6.9819 7.2906c.4084.2152.9114.0588 1.1256-.3466.6931-1.3094 1.0585-2.79 1.0585-4.2811 0-5.0529-4.1131-9.16497-9.166-9.16497-5.054 0-9.16606 4.11207-9.16606 9.16497 0 5.054 4.11206 9.1661 9.16606 9.1661 1.469 0 2.9286-.355 4.2212-1.0281.4085-.211.5671-.7161.355-1.1235-.2121-.4064-.7151-.5681-1.1247-.355-1.07.5587-2.2324.8412-3.4515.8412-4.13519 0-7.50066-3.3645-7.50066-7.5007 0-4.13409 3.36547-7.49956 7.50066-7.49956 4.1351 0 7.5006 3.36547 7.5006 7.49956 0 1.2213-.3003 2.432-.8653 3.5009-.2163.4075-.0609.9115.3466 1.1268ZM13.1972.697021c-2.4141 0-4.75788.690949-6.77716 1.996179-.38747.24992-.49773.7655-.24782 1.15192.25097.38643.76445.49563 1.15298.24782 1.74731-1.12987 3.7802-1.72841 5.872-1.72841 5.9738 0 10.8325 4.85971 10.8325 10.83247 0 5.9739-4.8587 10.8336-10.8325 10.8336-5.97386 0-10.83357-4.8597-10.83357-10.8336 0-2.0718.58699-4.08684 1.69901-5.8247.24782-.38853.13441-.90411-.25412-1.15193-.38747-.24781-.90305-.1344-1.14982.25307C1.37552 8.48012.697174 10.8071.697174 13.197c0 6.8937 5.606306 12.5 12.500026 12.5 6.8926 0 12.5-5.6063 12.5-12.5 0-6.89157-5.6074-12.499979-12.5-12.499979Z" fill="#16DBCC"/></svg>