<svg width="22" height="13" viewBox="0 0 22 13" fill="none" xmlns="http://www.w3.org/2000/svg"><path d="M20.9999 7.26564c-.034-.48999-.1027-1.0245-.204-1.58893-.1021-.56865-.2337-1.10623-.3911-1.59757-.1627-.50783-.3839-1.00934-.6574-1.48993-.2838-.49882-.6172-.93318-.9913-1.2906-.3911-.373922-.8701-.674557-1.4239-.893845C16.7803.186627 16.1686.07612 15.5144.07612c-.257 0-.5055.105327-.9854.417473-.2953.192429-.6408.414979-1.0264.661127-.3297.20989-.7764.40654-1.3281.58458-.5383.17401-1.0849.26226-1.6243.26226-.5394 0-1.08577-.08825-1.62463-.26226-.55114-.17785-.99782-.3745-1.32716-.58439-.38197-.243844-.72763-.466394-1.0274-.661509C6.09168.181255 5.843.075928 5.58605.075928c-.65446 0-1.26591.110699-1.81763.329029-.55345.218905-1.03258.519539-1.42414.893843-.3739.35762-.70747.79178-.99091 1.29041-.27327.48059-.494498.98191-.657345 1.49013-.157278.49133-.288823 1.02872-.390987 1.59737-.101203.56367-.169953 1.09836-.203943 1.58951-.033414.48117-.050314.98056-.050314 1.48494 0 1.31264.41768 2.37534 1.241329 3.15904.81347.7734 1.88983 1.1657 3.19876 1.1657H16.6107c1.3089 0 2.3849-.3921 3.1986-1.1657.8238-.7831 1.2415-1.846 1.2415-3.15923-.0002-.50668-.0173-1.00646-.0509-1.48533Z" fill="#B1B1B1"/></svg>