<svg width="16" height="15" viewBox="0 0 16 15" fill="none" xmlns="http://www.w3.org/2000/svg"><path d="M8.38452 15c4.13548 0 7.49998-3.3645 7.49998-7.49998C15.8845 3.36455 12.52 0 8.38452 0 4.24901 0 .884521 3.3645.884521 7.49998.884521 11.6354 4.24901 15 8.38452 15ZM5.97453 9.84037c.21817-.33084.66542-.42371.9989-.20718.48599.31533.66928.34439 1.3105.33996.62588-.00411.98904-.46691 1.06159-.8952.03531-.20833.04882-.71704-.58667-.93992-.74543-.26145-1.50832-.56026-2.03904-.97323-.53072-.41298-.77376-1.12591-.6342-1.86047.1513-.79631.71122-1.43021 1.46131-1.65433.00679-.002.01343-.00363.02021-.00563V3.373c0-.39536.32309-.71589.72161-.71589s.72161.32053.72161.71589v.22627c.49012.11607.8324.33852.97139.44156.31916.23677.38456.68535.14586 1.00206-.23857.31671-.69073.38152-1.00997.14471-.14788-.10968-.55655-.34545-1.15448-.16671-.34931.10442-.4399.44633-.45933.54861-.03815.20098.00467.38935.10665.46867.36788.28626 1.03013.53974 1.62935.74987 1.10498.38749 1.71938 1.40311 1.52898 2.52725-.0935.55157-.3732 1.06331-.78764 1.44101-.28229.2574-.61087.4408-.97081.5456v.3251c0 .3953-.32309.7158-.72161.7158s-.72161-.3205-.72161-.7158v-.2537c-.4666-.0561-.85829-.2009-1.38381-.5419-.33344-.2165-.42696-.6602-.20879-.99103Z" fill="#B1B1B1"/></svg>