<svg width="12" height="11" viewBox="0 0 12 11" fill="none" xmlns="http://www.w3.org/2000/svg"><path d="M8.65719 5.55957c.29111-1.63137.0554-3.06652-1.15324-4.28017C6.68158.454273 5.58131 0 4.40582 0c-.1979 0-.3937.012954-.58696.038617-.28221.037586-.51845.232975-.6097.503586-.09125.270513-.02157.569637.17971.771597l1.01304 1.00639v2.09589h-2.0848L1.3116 3.39301c-.20084-.20152-.498303-.27125-.767553-.18032-.269152.09092-.463827.32694-.502508.60933C-.18194 5.45486.523166 7.1137 1.96179 8.0882c1.19573.80835 2.3006.82837 3.58582.59588L7.85188 11l.51782-.5196c.76804-.77065 1.8498-1.02634 2.8351-.76334l.7961-.79873-3.34371-3.35876Z" fill="#B1B1B1"/></svg>