<svg width="19" height="5" viewBox="0 0 19 5" fill="none" xmlns="http://www.w3.org/2000/svg"><path d="M17.2512 4.35059H.873798c-.21517 0-.421526-.07865-.573674-.21864C.147976 3.99197.0625 3.8021.0625 3.60413V1.09704c0-.197972.085476-.387835.237624-.527822C.452272.42923.658628.350586.873798.350586H17.2512c.2152 0 .4215.078644.5737.218632.1521.139987.2376.32985.2376.527822v2.50709c0 .19797-.0855.38784-.2376.52782-.1522.13999-.3585.21864-.5737.21864ZM1.6851 2.85768h14.7548V1.84349H1.6851v1.01419Z" fill="#FFBB38"/></svg>