<svg width="15" height="14" viewBox="0 0 15 14" fill="none" xmlns="http://www.w3.org/2000/svg"><path d="M7.59595.00232C3.74565.00232.595947 3.17294.595947 7.0268c0 3.625 2.792413 6.6268 6.372893 6.9471 4.14346.3689 7.62706-2.9043 7.62706-6.9471 0-3.84639-3.1401-7.02448-6.99995-7.02448Zm.73524 10.19598v.153c0 .4041-.32875.7317-.73426.7317-.40551 0-.73427-.3276-.73427-.7317v-.0702c-.3383-.0591-.64738-.1853-1.03786-.43988-.33938-.22122-.43449-.67469-.2125-1.01289.222-.33825.67709-.43298 1.01642-.21181.35793.23337.4739.25157.96321.2482.47238-.00312.6606-.37264.69736-.59045.03299-.19556-.00406-.45556-.36797-.58371-.60963-.21478-1.23479-.46122-1.67765-.80738-1.00844-.7882-.70401-2.58847.61904-3.06755v-.10595c0-.4041.32875-.73171.73426-.73171.40552 0 .73427.32761.73427.73171v.04059c.3618.10176.65315.28581.85332.48864.28435.2881.28044.75137-.00867 1.03474-.28901.28323-.75355.27947-1.03786-.00814-.04097-.03986-.26717-.22781-.75688-.08083-.19551.05868-.24803.26073-.25949.32127-.02389.12634.01013.21151.02834.22576.27697.21649.79277.4142 1.26079.57908 1.93521.68166 1.69951 3.24662-.0796 3.88751Z" fill="#B1B1B1"/></svg>